<svg xmlns="http://www.w3.org/2000/svg" version="1.1" xmlns:xlink="http://www.w3.org/1999/xlink" xmlns:svgjs="http://svgjs.dev/svgjs" width="1000" height="1000" viewBox="0 0 1000 1000"><rect width="1000" height="1000" fill="#d86e3d"></rect><g transform="matrix(0.7,0,0,0.7,150,172.04999999999995)"><svg viewBox="0 0 384 360" data-background-color="#d86e3d" preserveAspectRatio="xMidYMid meet" height="937" width="1000" xmlns="http://www.w3.org/2000/svg" xmlns:xlink="http://www.w3.org/1999/xlink"><g id="tight-bounds" transform="matrix(1,0,0,1,0,0)"><svg viewBox="0 0 384 360" height="360" width="384"><g><svg></svg></g><g><svg viewBox="0 0 384 360" height="360" width="384"><g><path xmlns="http://www.w3.org/2000/svg" d="M362.354 145.441v-42.24c0-21.12-19.163-38.402-42.587-38.402h-93.208c-15.198 0-28.337-8.831-34.559-21.646-6.222 12.81-19.36 21.646-34.559 21.646h-93.208c-23.424 0-42.587 17.282-42.587 38.402v42.24c0 15.198-8.831 28.337-21.646 34.559 12.81 6.222 21.646 19.36 21.646 34.559v42.24c0 21.12 19.163 38.402 42.587 38.402h93.208c15.198 0 28.337 8.831 34.559 21.646 6.222-12.81 19.36-21.646 34.559-21.646h93.208c23.424 0 42.587-17.282 42.587-38.402v-42.24c0-15.198 8.831-28.337 21.646-34.559-12.81-6.222-21.646-19.36-21.646-34.559z" fill="#ffffff" fill-rule="nonzero" stroke="none" stroke-width="1" stroke-linecap="butt" stroke-linejoin="miter" stroke-miterlimit="10" stroke-dasharray="" stroke-dashoffset="0" font-family="none" font-weight="none" font-size="none" text-anchor="none" style="mix-blend-mode: normal" data-fill-palette-color="tertiary"></path></g><g transform="matrix(1,0,0,1,76.80000000000001,140.30642263248382)"><svg viewBox="0 0 230.39999999999998 79.38715473503234" height="79.38715473503234" width="230.39999999999998"><g><svg viewBox="0 0 230.39999999999998 79.38715473503234" height="79.38715473503234" width="230.39999999999998"><g transform="matrix(1,0,0,1,0,49.06444648094333)"><svg viewBox="0 0 230.39999999999998 30.322708254089008" height="30.322708254089008" width="230.39999999999998"><g><svg viewBox="0 0 230.39999999999998 30.322708254089008" height="30.322708254089008" width="230.39999999999998"><g><svg viewBox="0 0 230.39999999999998 30.322708254089008" height="30.322708254089008" width="230.39999999999998"><g transform="matrix(1,0,0,1,0,0)"><svg width="230.39999999999998" viewBox="3.0999999046325684 -34.29999923706055 262.8800048828125 34.599998474121094" height="30.322708254089008" data-palette-color="#d86e3d"><path d="M3.1 0L3.1-33.85 24.65-33.85 24.65-27.85 11.35-27.85 11.35-20.1 22.5-20.1 21.5-14.15 11.35-14.15 11.35 0 3.1 0ZM20.5 0L33.35-33.85 40.7-33.85 53.1 0 44.75 0 42.25-8.15 31.3-8.15 28.7 0 20.5 0ZM33.2-14.25L40.4-14.25Q39.9-15.7 39.37-17.28 38.85-18.85 38.37-20.35 37.9-21.85 37.5-23.18 37.1-24.5 36.8-25.4L36.8-25.4Q36.5-24.45 36.1-23.13 35.7-21.8 35.22-20.3 34.75-18.8 34.22-17.25 33.7-15.7 33.2-14.25L33.2-14.25ZM78.59-30.15L74.09-25.6Q72.7-27.3 71.4-27.88 70.09-28.45 68.8-28.45L68.8-28.45Q65.55-28.45 64.07-25.43 62.6-22.4 62.6-17.05L62.6-17.05Q62.6-14.5 62.92-12.38 63.25-10.25 64.05-8.75 64.84-7.25 66.17-6.4 67.5-5.55 69.5-5.55L69.5-5.55Q71.25-5.55 72.92-5.98 74.59-6.4 76-6.95L76-6.95 77.8-1.35Q76.25-0.7 73.9-0.2 71.55 0.3 68.5 0.3L68.5 0.3Q60.8 0.3 57.25-4.08 53.7-8.45 53.7-16.5L53.7-16.5Q53.7-20.4 54.62-23.65 55.55-26.9 57.42-29.28 59.3-31.65 62.12-32.98 64.95-34.3 68.8-34.3L68.8-34.3Q70.8-34.3 72.32-33.95 73.84-33.6 75-33.02 76.15-32.45 77.02-31.7 77.9-30.95 78.59-30.15L78.59-30.15ZM80.29-33.85L105.44-33.85 104.39-27.8 96.59-27.8 96.59 0 88.34 0 88.34-27.8 80.29-27.8 80.29-33.85ZM145.14-30.15L140.64-25.6Q139.24-27.3 137.94-27.88 136.64-28.45 135.34-28.45L135.34-28.45Q132.09-28.45 130.61-25.43 129.14-22.4 129.14-17.05L129.14-17.05Q129.14-14.5 129.46-12.38 129.79-10.25 130.59-8.75 131.39-7.25 132.71-6.4 134.04-5.55 136.04-5.55L136.04-5.55Q137.79-5.55 139.46-5.98 141.14-6.4 142.54-6.95L142.54-6.95 144.34-1.35Q142.79-0.7 140.44-0.2 138.09 0.3 135.04 0.3L135.04 0.3Q127.34 0.3 123.79-4.08 120.24-8.45 120.24-16.5L120.24-16.5Q120.24-20.4 121.16-23.65 122.09-26.9 123.96-29.28 125.84-31.65 128.66-32.98 131.49-34.3 135.34-34.3L135.34-34.3Q137.34-34.3 138.86-33.95 140.39-33.6 141.54-33.02 142.69-32.45 143.56-31.7 144.44-30.95 145.14-30.15L145.14-30.15ZM168.79 0L168.79-14.5 157.09-14.5 157.09 0 148.84 0 148.84-33.85 157.09-33.85 157.09-20.6 168.79-20.6 168.79-33.85 176.99-33.85 176.99 0 168.79 0ZM183.23 0L183.23-33.85 204.78-33.85 204.78-27.8 191.48-27.8 191.48-20.55 202.53-20.55 201.58-14.6 191.48-14.6 191.48-6.05 205.48-6.05 205.48 0 183.23 0ZM232.78-30.15L228.28-25.6Q226.88-27.3 225.58-27.88 224.28-28.45 222.98-28.45L222.98-28.45Q219.73-28.45 218.26-25.43 216.78-22.4 216.78-17.05L216.78-17.05Q216.78-14.5 217.11-12.38 217.43-10.25 218.23-8.75 219.03-7.25 220.36-6.4 221.68-5.55 223.68-5.55L223.68-5.55Q225.43-5.55 227.11-5.98 228.78-6.4 230.18-6.95L230.18-6.95 231.98-1.35Q230.43-0.7 228.08-0.2 225.73 0.3 222.68 0.3L222.68 0.3Q214.98 0.3 211.43-4.08 207.88-8.45 207.88-16.5L207.88-16.5Q207.88-20.4 208.81-23.65 209.73-26.9 211.61-29.28 213.48-31.65 216.31-32.98 219.13-34.3 222.98-34.3L222.98-34.3Q224.98-34.3 226.51-33.95 228.03-33.6 229.18-33.02 230.33-32.45 231.21-31.7 232.08-30.95 232.78-30.15L232.78-30.15ZM236.48 0L236.48-33.85 244.73-33.85 244.73 0 236.48 0ZM262.88-33.85Q262.18-30.3 261.25-27.75 260.33-25.2 259.23-23.33 258.13-21.45 256.88-20.15 255.63-18.85 254.28-17.8L254.28-17.8 265.98 0 256.78 0 245.28-18.55 245.28-19.15Q247.48-20.2 249-21.63 250.53-23.05 251.58-24.88 252.63-26.7 253.35-28.93 254.08-31.15 254.68-33.85L254.68-33.85 262.88-33.85Z" opacity="1" transform="matrix(1,0,0,1,0,0)" fill="#d86e3d" class="undefined-text-0" data-fill-palette-color="quaternary" id="text-0"></path></svg></g></svg></g></svg></g></svg></g><g transform="matrix(1,0,0,1,78.73590237656853,0)"><svg viewBox="0 0 72.9281952468629 41.90598280715101" height="41.90598280715101" width="72.9281952468629"><g><svg xmlns="http://www.w3.org/2000/svg" xmlns:xlink="http://www.w3.org/1999/xlink" version="1.1" x="8" y="0" viewBox="2.2060000896453857 14.194000244140625 100 73.61199951171875" enable-background="new 2.206 14.194 100 73.612" xml:space="preserve" width="56.9281952468629" height="41.90598280715101" class="icon-icon-0" data-fill-palette-color="quaternary" id="icon-0"><path fill="#d86e3d" d="M52.043 63.576l0.007-0.012-5.398-11.87-0.001 0.011c0-0.003 0-0.007 0-0.011 0-12.272-9.949-22.222-22.222-22.222S2.206 39.422 2.206 51.694c0 7.015 3.258 13.26 8.333 17.333v18.779H34.15v-8.333h2.778v-0.002c4.602 0 8.333-3.73 8.333-8.333v-5.554l5.556-0.002c0.768 0 1.389-0.621 1.389-1.389C52.206 63.969 52.14 63.763 52.043 63.576zM39.706 57.25c-1.534 0-2.778-1.244-2.778-2.778 0-1.533 1.244-2.777 2.778-2.777s2.778 1.244 2.778 2.777C42.484 56.006 41.24 57.25 39.706 57.25z" data-fill-palette-color="quaternary"></path><path fill="#d86e3d" d="M93.873 14.194H60.539c-4.604 0-8.333 3.73-8.333 8.333 0 0 0 0 0 0.001v19.443c0 4.602 3.729 8.332 8.333 8.332l4.167 0.001-4.167 11.111 18.056-11.111 15.278-0.001c4.604 0 8.333-3.73 8.333-8.332v-1.388V22.529c0-0.001 0-0.001 0-0.001C102.206 17.924 98.477 14.194 93.873 14.194zM74.429 43.124l-8.91-8.908 3.928-3.928 4.982 4.98 12.619-12.621 3.928 3.928L74.429 43.124z" data-fill-palette-color="quaternary"></path></svg></g></svg></g><g><rect width="78.73590237656853" height="2.7345331233886654" y="38.17144968376235" x="151.66409762343142" fill="#ffffff" data-fill-palette-color="accent"></rect><rect width="78.73590237656853" height="2.7345331233886654" y="38.17144968376235" x="0" fill="#ffffff" data-fill-palette-color="accent"></rect><rect width="78.73590237656853" height="2.7345331233886654" y="32.702383436985016" x="151.66409762343142" fill="#ffffff" data-fill-palette-color="accent"></rect><rect width="78.73590237656853" height="2.7345331233886654" y="32.702383436985016" x="0" fill="#ffffff" data-fill-palette-color="accent"></rect></g></svg></g></svg></g></svg></g><defs></defs></svg><rect width="384" height="360" fill="none" stroke="none" visibility="hidden"></rect></g></svg></g></svg>